<?xml version="1.0" encoding="utf-8"?>
<!-- Generator: Adobe Illustrator 23.0.3, SVG Export Plug-In . SVG Version: 6.00 Build 0)  -->
<svg version="1.1" id="Layer_1" xmlns="http://www.w3.org/2000/svg" xmlns:xlink="http://www.w3.org/1999/xlink" x="0px" y="0px"
	 viewBox="0 0 512 512" style="enable-background:new 0 0 512 512;" xml:space="preserve">
<style type="text/css">
	.st0{fill:url(#SVGID_1_);}
	.st1{opacity:0.5;fill:#ECF0F1;enable-background:new    ;}
	.st2{fill:#E87E04;}
	.st3{fill:#F59D00;}
	.st4{fill:#F2C500;}
	.st5{fill:#ECF0F1;}
	.st6{fill:#BDC3C7;}
	.st7{fill:#E94B35;}
	.st8{fill:#C23824;}
	.st9{fill:#D55400;}
	.st10{fill:#A6DFFF;}
</style>
<g id="Others">
</g>
<g id="Design">
</g>
<g id="SEO_x2F__Web">
</g>
<g id="Finance__x2F__Money">
</g>
<g id="E-Commerce__x2F__Shopping">
</g>
<g id="Strategy">
	<g id="mission_1">
		
			<radialGradient id="SVGID_1_" cx="256.0009" cy="583.8892" r="256" gradientTransform="matrix(0.766 0.6428 -0.6428 0.766 435.2096 -355.8391)" gradientUnits="userSpaceOnUse">
			<stop  offset="5.100000e-03" style="stop-color:#33495F"/>
			<stop  offset="1" style="stop-color:#2B3E51"/>
		</radialGradient>
		<path class="st0" d="M452.1,420.6C361.2,528.9,199.8,543,91.4,452.1C37.6,406.9,7,344.3,1.1,279.4c-6-65.6,13.1-133.5,58.8-188
			C150.8-16.9,312.2-31,420.6,59.9S543,312.2,452.1,420.6z"/>
		<path class="st1" d="M242.4,466.8c-1.6-1.7-3.3-3.4-5.1-4.9c-4-3.3-8.2-6-12.7-8.1c8.9-17.3,8.4-37.7-0.7-54.5
			c0.6-0.6,1.1-1.2,1.7-1.8c10.1-12,8.5-29.9-3.5-39.9c-0.4-0.4-0.9-0.7-1.3-1.1c8.8-16.3,5.3-37-9.4-49.3
			c-13.6-11.4-32.5-12.1-46.7-3.2c-9.5-5.4-21.6-3.7-29.3,4.4c-19-13.8-43.9-14.8-63.7-4.1c-9.9-4.3-20.7-5.9-31.2-4.7
			c-5.1-9.9-12.2-19-21.3-26.6c-5.9-5-12.3-9-19-12.1c0.1,6.2,0.5,12.3,1,18.5c6,64.9,36.5,127.5,90.4,172.7
			c61.6,51.7,140.4,69.4,213.7,55.1c-1.3-11.9-6.9-23.3-16.8-31.6C275.1,464.5,257.6,461.8,242.4,466.8z"/>
		<path class="st2" d="M208.6,370.4c-27.8,33.1-91.4,51.1-91.4,51.1s4.1-62.7,34.4-98.9c13.2-15.7,36.7-17.8,52.4-4.6
			S221.8,354.7,208.6,370.4z"/>
		<path class="st3" d="M207.1,352.8c-18.5,22-60.7,33.9-60.7,33.9S149,345,169.2,321c8.8-10.5,24.4-11.8,34.8-3
			C214.5,326.7,215.8,342.3,207.1,352.8z"/>
		<path class="st4" d="M203.9,342.8c-11.2,13.4-37,20.7-37,20.7s1.6-25.4,13.9-40c5.3-6.4,14.8-7.2,21.2-1.9
			C208.4,326.9,209.3,336.4,203.9,342.8z"/>
		<g>
			<path class="st5" d="M408.6,176.3c0.8-3.3-61.8-27-61.8-27s-34.2-57.6-37.3-56.2c0,0.1,0.1,0.2,0.1,0.3
				C194.2,146.4,168,291.2,168,291.2s-1.2,4.8,2.9,8.3c4.5,3.8,29.3,24.6,29.3,24.6s25.1,21.1,29.6,24.9c4.1,3.5,8.6,1.4,8.6,1.4
				S376.5,299.2,408.6,176.3C408.6,176.3,408.6,176.3,408.6,176.3z"/>
			<path class="st6" d="M408.5,176.3c-32.1,122.9-170.1,174-170.1,174s-4.5,2.1-8.6-1.4c-4.5-3.8-29.6-24.9-29.6-24.9l146.6-174.7
				C373.5,168.9,395,175.1,408.5,176.3z"/>
			<path class="st7" d="M409,75.2c-18.4-15.4-71.7,5.2-99.5,18c3.5,13.1,13.4,33.3,37.3,56.2c26.7,19.6,48.3,25.8,61.8,27
				C416.3,146.7,427.4,90.6,409,75.2z"/>
			<path class="st8" d="M409,75.2l-62.2,74.1c26.7,19.6,48.3,25.8,61.8,27C416.3,146.7,427.4,90.6,409,75.2z"/>
			<path class="st2" d="M209.3,213l-27.2,73.1c-1,2.6-3.4,3.2-5.5,1.4c0,0-34.2-35.4-63.8-0.2c0,0-2.4,3.2-5.2,0.9
				s-14.4-12.1-14.4-12.1c-2.1-1.8-3.2-5.4-2.4-8C90.9,268.1,119.6,170.4,209.3,213z"/>
			<path class="st9" d="M308,295.8l-67.3,39.4c-2.4,1.4-2.6,3.9-0.4,5.7c0,0,40.8,27.5,11.3,62.8c0,0-2.7,3,0,5.3
				c2.8,2.3,14.4,12.1,14.4,12.1c2.1,1.8,5.8,2.2,8.3,1C274.3,422,365.6,376.7,308,295.8z"/>
			
				<ellipse transform="matrix(0.7071 -0.7071 0.7071 0.7071 -52.4442 273.4923)" class="st7" cx="303.9" cy="200.1" rx="47.2" ry="47.2"/>
			<path class="st10" d="M279.5,229.1c-16-13.5-18.1-37.5-4.7-53.5c13.5-16,37.5-18.1,53.5-4.7c16,13.5,18.1,37.5,4.7,53.5
				C319.5,240.5,295.5,242.6,279.5,229.1z"/>
			<path class="st2" d="M256.4,252.4c-2.1-1.8-5.3-1.5-7,0.6l-72.6,86.6c-1.8,2.1-1.5,5.3,0.6,7l2.3,1.9l79.1-94.2L256.4,252.4z"/>
			<path class="st9" d="M260.2,255.6l-1.5-1.3l-79.1,94.2l1.5,1.3c2.1,1.8,5.3,1.5,7-0.6l72.6-86.6
				C262.6,260.6,262.3,257.4,260.2,255.6z"/>
		</g>
	</g>
</g>
</svg>
